<svg width="485" height="510" viewBox="0 0 485 510" fill="none" xmlns="http://www.w3.org/2000/svg">
<path d="M117.74 23.516V64H109.62V23.516H117.74ZM153.313 23.516V30.07H142.525V64H134.405V30.07H123.617V23.516H153.313ZM160.861 23.516H169.387L163.123 38.132H157.555L160.861 23.516ZM189.188 64.406C186.365 64.406 183.813 63.9227 181.532 62.956C179.289 61.9893 177.511 60.5973 176.196 58.78C174.881 56.9627 174.205 54.8167 174.166 52.342H182.866C182.982 54.0047 183.562 55.3193 184.606 56.286C185.689 57.2527 187.158 57.736 189.014 57.736C190.909 57.736 192.397 57.2913 193.48 56.402C194.563 55.474 195.104 54.2753 195.104 52.806C195.104 51.6073 194.737 50.6213 194.002 49.848C193.267 49.0747 192.339 48.4753 191.218 48.05C190.135 47.586 188.627 47.0833 186.694 46.542C184.065 45.7687 181.919 45.0147 180.256 44.28C178.632 43.5067 177.221 42.366 176.022 40.858C174.862 39.3113 174.282 37.262 174.282 34.71C174.282 32.3127 174.881 30.2247 176.08 28.446C177.279 26.6673 178.961 25.314 181.126 24.386C183.291 23.4193 185.766 22.936 188.55 22.936C192.726 22.936 196.109 23.9607 198.7 26.01C201.329 28.0207 202.779 30.8433 203.05 34.478H194.118C194.041 33.086 193.441 31.9453 192.32 31.056C191.237 30.128 189.787 29.664 187.97 29.664C186.385 29.664 185.109 30.07 184.142 30.882C183.214 31.694 182.75 32.8733 182.75 34.42C182.75 35.5027 183.098 36.4113 183.794 37.146C184.529 37.842 185.418 38.422 186.462 38.886C187.545 39.3113 189.053 39.814 190.986 40.394C193.615 41.1673 195.761 41.9407 197.424 42.714C199.087 43.4873 200.517 44.6473 201.716 46.194C202.915 47.7407 203.514 49.7707 203.514 52.284C203.514 54.4493 202.953 56.46 201.832 58.316C200.711 60.172 199.067 61.6607 196.902 62.782C194.737 63.8647 192.165 64.406 189.188 64.406ZM256.564 23.516L242.876 49.906V64H234.756V49.906L221.01 23.516H230.174L238.874 42.018L247.516 23.516H256.564ZM280.039 64.406C276.25 64.406 272.77 63.5167 269.599 61.738C266.428 59.9593 263.915 57.504 262.059 54.372C260.203 51.2013 259.275 47.6247 259.275 43.642C259.275 39.698 260.203 36.16 262.059 33.028C263.915 29.8573 266.428 27.3827 269.599 25.604C272.77 23.8253 276.25 22.936 280.039 22.936C283.867 22.936 287.347 23.8253 290.479 25.604C293.65 27.3827 296.144 29.8573 297.961 33.028C299.817 36.16 300.745 39.698 300.745 43.642C300.745 47.6247 299.817 51.2013 297.961 54.372C296.144 57.504 293.65 59.9593 290.479 61.738C287.308 63.5167 283.828 64.406 280.039 64.406ZM280.039 57.156C282.475 57.156 284.621 56.6147 286.477 55.532C288.333 54.4107 289.783 52.8253 290.827 50.776C291.871 48.7267 292.393 46.3487 292.393 43.642C292.393 40.9353 291.871 38.5767 290.827 36.566C289.783 34.5167 288.333 32.9507 286.477 31.868C284.621 30.7853 282.475 30.244 280.039 30.244C277.603 30.244 275.438 30.7853 273.543 31.868C271.687 32.9507 270.237 34.5167 269.193 36.566C268.149 38.5767 267.627 40.9353 267.627 43.642C267.627 46.3487 268.149 48.7267 269.193 50.776C270.237 52.8253 271.687 54.4107 273.543 55.532C275.438 56.6147 277.603 57.156 280.039 57.156ZM314.79 23.516V48.572C314.79 51.3173 315.506 53.4247 316.936 54.894C318.367 56.3247 320.378 57.04 322.968 57.04C325.598 57.04 327.628 56.3247 329.058 54.894C330.489 53.4247 331.204 51.3173 331.204 48.572V23.516H339.382V48.514C339.382 51.9553 338.628 54.8747 337.12 57.272C335.651 59.6307 333.66 61.4093 331.146 62.608C328.672 63.8067 325.907 64.406 322.852 64.406C319.836 64.406 317.091 63.8067 314.616 62.608C312.18 61.4093 310.247 59.6307 308.816 57.272C307.386 54.8747 306.67 51.9553 306.67 48.514V23.516H314.79ZM368.108 64L359.176 48.224H355.348V64H347.228V23.516H362.424C365.556 23.516 368.224 24.0767 370.428 25.198C372.632 26.2807 374.275 27.7693 375.358 29.664C376.479 31.52 377.04 33.608 377.04 35.928C377.04 38.596 376.266 41.0127 374.72 43.178C373.173 45.3047 370.872 46.774 367.818 47.586L377.504 64H368.108ZM355.348 42.134H362.134C364.338 42.134 365.981 41.612 367.064 40.568C368.146 39.4853 368.688 37.9967 368.688 36.102C368.688 34.246 368.146 32.8153 367.064 31.81C365.981 30.766 364.338 30.244 362.134 30.244H355.348V42.134ZM148.855 281.414H137.179L135.247 287H129.073L139.615 257.642H146.461L157.003 287H150.787L148.855 281.414ZM147.259 276.71L143.017 264.446L138.775 276.71H147.259ZM186.018 287H180.138L166.824 266.882V287H160.944V257.642H166.824L180.138 277.802V257.642H186.018V287ZM202.077 257.684C205.157 257.684 207.859 258.286 210.183 259.49C212.535 260.694 214.341 262.416 215.601 264.656C216.889 266.868 217.533 269.444 217.533 272.384C217.533 275.324 216.889 277.9 215.601 280.112C214.341 282.296 212.535 283.99 210.183 285.194C207.859 286.398 205.157 287 202.077 287H191.829V257.684H202.077ZM201.867 282.002C204.947 282.002 207.327 281.162 209.007 279.482C210.687 277.802 211.527 275.436 211.527 272.384C211.527 269.332 210.687 266.952 209.007 265.244C207.327 263.508 204.947 262.64 201.867 262.64H197.709V282.002H201.867ZM255.252 257.684L245.34 276.794V287H239.46V276.794L229.506 257.684H236.142L242.442 271.082L248.7 257.684H255.252ZM272.251 287.294C269.507 287.294 266.987 286.65 264.691 285.362C262.395 284.074 260.575 282.296 259.231 280.028C257.887 277.732 257.215 275.142 257.215 272.258C257.215 269.402 257.887 266.84 259.231 264.572C260.575 262.276 262.395 260.484 264.691 259.196C266.987 257.908 269.507 257.264 272.251 257.264C275.023 257.264 277.543 257.908 279.811 259.196C282.107 260.484 283.913 262.276 285.229 264.572C286.573 266.84 287.245 269.402 287.245 272.258C287.245 275.142 286.573 277.732 285.229 280.028C283.913 282.296 282.107 284.074 279.811 285.362C277.515 286.65 274.995 287.294 272.251 287.294ZM272.251 282.044C274.015 282.044 275.569 281.652 276.913 280.868C278.257 280.056 279.307 278.908 280.063 277.424C280.819 275.94 281.197 274.218 281.197 272.258C281.197 270.298 280.819 268.59 280.063 267.134C279.307 265.65 278.257 264.516 276.913 263.732C275.569 262.948 274.015 262.556 272.251 262.556C270.487 262.556 268.919 262.948 267.547 263.732C266.203 264.516 265.153 265.65 264.397 267.134C263.641 268.59 263.263 270.298 263.263 272.258C263.263 274.218 263.641 275.94 264.397 277.424C265.153 278.908 266.203 280.056 267.547 280.868C268.919 281.652 270.487 282.044 272.251 282.044ZM297.416 257.684V275.828C297.416 277.816 297.934 279.342 298.97 280.406C300.006 281.442 301.462 281.96 303.338 281.96C305.242 281.96 306.712 281.442 307.748 280.406C308.784 279.342 309.302 277.816 309.302 275.828V257.684H315.224V275.786C315.224 278.278 314.678 280.392 313.586 282.128C312.522 283.836 311.08 285.124 309.26 285.992C307.468 286.86 305.466 287.294 303.254 287.294C301.07 287.294 299.082 286.86 297.29 285.992C295.526 285.124 294.126 283.836 293.09 282.128C292.054 280.392 291.536 278.278 291.536 275.786V257.684H297.416ZM336.025 287L329.557 275.576H326.785V287H320.905V257.684H331.909C334.177 257.684 336.109 258.09 337.705 258.902C339.301 259.686 340.491 260.764 341.275 262.136C342.087 263.48 342.493 264.992 342.493 266.672C342.493 268.604 341.933 270.354 340.813 271.922C339.693 273.462 338.027 274.526 335.815 275.114L342.829 287H336.025ZM326.785 271.166H331.699C333.295 271.166 334.485 270.788 335.269 270.032C336.053 269.248 336.445 268.17 336.445 266.798C336.445 265.454 336.053 264.418 335.269 263.69C334.485 262.934 333.295 262.556 331.699 262.556H326.785V271.166Z" fill="white"/>
<path d="M137.178 105.25V128.65H108.978V211H79.5779V128.65H51.6779V105.25H137.178ZM177.455 105.25V211H148.055V105.25H177.455ZM317.648 105.25V211H288.248V152.65L268.298 211H243.698L223.598 152.2V211H194.198V105.25H229.748L256.298 173.95L282.248 105.25H317.648ZM363.783 128.8V146.05H397.533V168.4H363.783V187.45H402.033V211H334.383V105.25H402.033V128.8H363.783Z" fill="#18DBF5"/>
<path d="M3.584 367.352C3.584 359.587 5.18933 352.68 8.4 346.632C11.6853 340.509 16.3147 335.768 22.288 332.408C28.2613 328.973 35.1307 327.256 42.896 327.256C52.752 327.256 61.04 329.907 67.76 335.208C74.48 340.435 78.8107 347.565 80.752 356.6H57.12C55.7013 353.613 53.7227 351.336 51.184 349.768C48.72 348.2 45.8453 347.416 42.56 347.416C37.4827 347.416 33.4133 349.245 30.352 352.904C27.3653 356.488 25.872 361.304 25.872 367.352C25.872 373.475 27.3653 378.365 30.352 382.024C33.4133 385.608 37.4827 387.4 42.56 387.4C45.8453 387.4 48.72 386.616 51.184 385.048C53.7227 383.48 55.7013 381.203 57.12 378.216H80.752C78.8107 387.251 74.48 394.419 67.76 399.72C61.04 404.947 52.752 407.56 42.896 407.56C35.1307 407.56 28.2613 405.88 22.288 402.52C16.3147 399.085 11.6853 394.344 8.4 388.296C5.18933 382.173 3.584 375.192 3.584 367.352ZM161.819 328.04V407H139.867V375.304H113.099V407H91.147V328.04H113.099V357.72H139.867V328.04H161.819ZM224.333 394.12H196.333L192.077 407H169.005L197.789 328.04H223.101L251.773 407H228.589L224.333 394.12ZM218.845 377.32L210.333 351.784L201.933 377.32H218.845ZM332.064 407H310.112L280.88 362.872V407H258.928V328.04H280.88L310.112 372.728V328.04H332.064V407ZM341.881 367.352C341.881 359.587 343.486 352.68 346.697 346.632C349.982 340.509 354.612 335.768 360.585 332.408C366.558 328.973 373.428 327.256 381.193 327.256C391.049 327.256 399.337 329.907 406.057 335.208C412.777 340.435 417.108 347.565 419.049 356.6H395.417C393.998 353.613 392.02 351.336 389.481 349.768C387.017 348.2 384.142 347.416 380.857 347.416C375.78 347.416 371.71 349.245 368.649 352.904C365.662 356.488 364.169 361.304 364.169 367.352C364.169 373.475 365.662 378.365 368.649 382.024C371.71 385.608 375.78 387.4 380.857 387.4C384.142 387.4 387.017 386.616 389.481 385.048C392.02 383.48 393.998 381.203 395.417 378.216H419.049C417.108 387.251 412.777 394.419 406.057 399.72C399.337 404.947 391.049 407.56 381.193 407.56C373.428 407.56 366.558 405.88 360.585 402.52C354.612 399.085 349.982 394.344 346.697 388.296C343.486 382.173 341.881 375.192 341.881 367.352ZM451.396 345.624V358.504H476.596V375.192H451.396V389.416H479.956V407H429.444V328.04H479.956V345.624H451.396Z" fill="#18DBF5"/>
</svg>
